# xmcd
#
# Track frame offsets:
#	150
#	19827
#	39175
#	57167
#	72552
#	88542
#	103090
#	119182
#	134162
#	151107
#	165657
#	179465
#	195550
#	213037
#
# Disc length: 3036 seconds
#
# Revision: 1
# Processed by: cddbd v1.5PL3 Copyright (c) Steve Scherf et al.
# Submitted via: EasyCDDAExtractor 5.0.6
#
DISCID=c40bda0e
DTITLE=余天 - 20年來最暢銷國語金曲系列4
DYEAR=1900
DGENRE=POP
TTITLE0=到底愛不愛我
TTITLE1=風凄凄意綿綿
TTITLE2=又是細雨
TTITLE3=不如歸去
TTITLE4=永恆的回憶
TTITLE5=我在你左右
TTITLE6=在水一方
TTITLE7=舞台
TTITLE8=男人的眼淚\
TTITLE9=友情
TTITLE10=月滿西樓
TTITLE11=離情
TTITLE12=心聲淚\痕
TTITLE13=一簾幽夢
EXTD=
EXTT0=
EXTT1=
EXTT2=
EXTT3=
EXTT4=
EXTT5=
EXTT6=
EXTT7=
EXTT8=
EXTT9=
EXTT10=
EXTT11=
EXTT12=
EXTT13=
PLAYORDER=
